<svg width="1200" height="1400" viewBox="0 0 1200 1400" fill="none" xmlns="http://www.w3.org/2000/svg">
  <rect width="1200" height="1400" fill="#16120F"/>
  <rect width="1200" height="1400" fill="url(#paint0_linear)"/>
  <circle cx="915" cy="220" r="230" fill="#7A6655" fill-opacity="0.28"/>
  <circle cx="220" cy="1140" r="280" fill="#4B3C2C" fill-opacity="0.36"/>
  <circle cx="610" cy="500" r="220" fill="#FFF6EB" fill-opacity="0.12"/>
  <circle cx="610" cy="500" r="170" fill="#FFF9F2" fill-opacity="0.18"/>
  <path d="M512 456C512 402.428 555.428 359 609 359C662.572 359 706 402.428 706 456V554H512V456Z" fill="#FBF2E6" fill-opacity="0.82"/>
  <path d="M444 1032C444 901.109 550.109 795 681 795H537C667.891 795 774 901.109 774 1032V1086H444V1032Z" fill="#F3E5D6" fill-opacity="0.82"/>
  <rect x="336" y="860" width="548" height="372" rx="186" fill="#291E15" fill-opacity="0.4"/>
  <text x="610" y="1244" text-anchor="middle" fill="#FFF8EF" font-family="Arial, sans-serif" font-size="92" font-weight="700">N</text>
  <defs>
    <linearGradient id="paint0_linear" x1="600" y1="0" x2="600" y2="1400" gradientUnits="userSpaceOnUse">
      <stop stop-color="#5A4737"/>
      <stop offset="1" stop-color="#171210"/>
    </linearGradient>
  </defs>
</svg>
